# xmcd
#
# Track frame offsets:
#	150
#	12407
#	26945
#	38407
#	51670
#	66445
#	79550
#	94445
#	107402
#	118647
#	131157
#	141830
#	151947
#	167100
#	180820
#	190692
#	199337
#	212467
#	224075
#	235995
#
# Disc length: 3293
#
# Revision: 4
# Processed by: cddbd v1.5.1PL0 Copyright (c) Steve Scherf et al.
# Submitted via: CDex 1.40Beta9
# Normalized: r3:DSETVAR1
#
DISCID=210cdb14
DTITLE=Various Artist - The Country Box - Disc One
DYEAR=1900
DGENRE=Country
TTITLE0=Crystal Gayle - Don't It Make My Brown Eyes Blue
TTITLE1=Roger Miller - Me And Bobby Mcgee
TTITLE2=Patsy Cline - Walkin' After Midnight
TTITLE3=Kenny Rogers - Ruby Dont Take Your Love To Town
TTITLE4=Billie Jo Spears - Midnight Love
TTITLE5=Don Williams - Where Do We Go From Here
TTITLE6=Jeannie C. Riley - Harper Valley PTA
TTITLE7=Johnny Darrell - The Son Of Hickory Holler's Tramp
TTITLE8=The Kendalls - Heaven's Just A Sin Away
TTITLE9=Johnny Cash - I Still Miss Someone
TTITLE10=Patsy Cline - I Can See An Angel
TTITLE11=Carl Perkins - Daddy Sang Bass
TTITLE12=Billie Jo Spears - Blanket On The Ground
TTITLE13=Charley Pride - Can't Stop The Mississippi
TTITLE14=Wanda Jackson - I Fall To Pieces
TTITLE15=Waylon Jennings - Love's Gonna Live Here
TTITLE16=Crystal Gayle - Break My Mind
TTITLE17=Charlie Rich - You Don't Know Me
TTITLE18=Billie Jo Spears - Misty Blue
TTITLE19=Roger Miller - King Of The Road
EXTD=ID3G: 2
EXTT0=CRYSTAL GAYLE\n
EXTT1=ROGER MILLER\n
EXTT2=PATSY CLINE\n
EXTT3=KENNY ROGERS\n
EXTT4=BILLIE JO SPEARS\n
EXTT5=DON WILLIAMS\n
EXTT6=JEANNIE C.RILEY\n
EXTT7=JOHNNY DARRELL\n
EXTT8=THE KENDALLS\n
EXTT9=JOHNNY CASH\n
EXTT10=PATSY CLINE\n
EXTT11=CARL PERKINS\n
EXTT12=BILLIE JO SPEARS\n
EXTT13=CHARLEY PRIDE\n
EXTT14=WANDA JACKSON\n
EXTT15=WAYLON JENNINGS\n
EXTT16=CRYSTAL GAYLE\n
EXTT17=CHARLIE RICH\n
EXTT18=BILLIE JO SPEARS\n
EXTT19=ROGER MILLER\n
PLAYORDER=
